<svg id="Capa_1" data-name="Capa 1" xmlns="http://www.w3.org/2000/svg" viewBox="0 0 209.92 228.09"><defs><style>.cls-1,.cls-2{fill:none;stroke-linecap:round;stroke-linejoin:round;stroke-width:2px;}.cls-1{stroke:#356341;}.cls-2{stroke:#fff;}</style></defs><path class="cls-1" d="M12.14,22c.77,1.85-.37,1.87-1.75,2C2.79,24.94,0,29.19,1.32,36.55,3.1,46.26,5.09,55.8,8.76,65.09a75.45,75.45,0,0,0,34.66,39.39c1.07.59,2.76,1.52,3.44,1.4,8-1.49,10.65,4.86,13.38,9.74,7.79,13.91,19.63,23,33.74,29.21,3.89,1.71,8.92,1.27,13.41,1.13,11.9-.36,21.35-6.62,29.91-14,6-5.23,9.83-12.5,14.7-18.8,4.25-5.49,5.71-11.84,8-18.06a198.51,198.51,0,0,0,10-40c1.25-8.82,1.52-17.83,3.29-26.44,1.58-7.71-.4-15.1.62-22.58.48-3.6-1.34-5-5-5q-63.51.09-127,.05c-4.25,0-5.9,1.74-6,6-.35,14.78,1.53,29.39,3.49,44,2.21,16.51,5.76,32.66,12.42,48,.82,1.88.42,4.29.59,6.46"/><path class="cls-1" d="M59.89,209a34.48,34.48,0,0,0-6.43,2.17c-4.14,1.77-5.8,9.08-4.13,13.85.92,2.63,2.84,1.94,4.56,1.95,8.83.06,17.66,0,26.5,0h79.94c.48-6,2.65-12-4-15.44-2.7-1.41-5.43-3.52-9-1.66-1.18.62-3,.1-4.45.1-23.67,0-47.34,0-71,0-3.84,0-7.89,1.88-11.5-1"/><path class="cls-1" d="M157.89,105.54a8.8,8.8,0,0,0,8-.55c21.47-11.25,34.13-29.33,40-52.47,1.61-6.37,3.27-12.79,3.07-19.48-.16-5.69-3.32-8.88-9-9-8.17-.19-16.39.65-24.5-1"/><path class="cls-1" d="M116.39,145.54c1.07,8,.75,16.08,2.82,24A36.21,36.21,0,0,0,127.44,185a21.55,21.55,0,0,1,3.95,6"/><path class="cls-1" d="M94.39,146c-.31,4.35-1.38,8.59-1.59,13a43,43,0,0,1-7.93,23c-2,2.88-4.48,5.5-5.48,9"/><path class="cls-1" d="M59.89,208.54c0-2-.11-4,0-6,.34-5.28,4.93-9.93,10-9.32a10.78,10.78,0,0,0,5.52-.69,9.27,9.27,0,0,1,7.51,0c4.52,2.08,9.33.76,14,.93,8.66.31,17.33.09,26,.09.83,0,1.86.32,2.47,0,5.22-3.16,10.38-.56,15.52.08,6.82.85,9,3.36,9,10v5"/><path class="cls-1" d="M12.89,23.54a98.68,98.68,0,0,0,22,0"/><rect class="cls-2" x="9.57" y="19.59" width="6.11" height="2.24"/></svg>