<svg id="Capa_1" data-name="Capa 1" xmlns="http://www.w3.org/2000/svg" viewBox="0 0 232.16 229.06"><defs><style>.cls-1{fill:none;stroke:#356341;stroke-linecap:round;stroke-linejoin:round;stroke-width:2px;}</style></defs><path class="cls-1" d="M197.5,52.56Q166.26,88.8,135,125.06q-28.54,33.21-57,66.51c-2.12,2.48-4,5.15-6,7.74"/><path class="cls-1" d="M188.5,44.56c-10.83,12.5-21.71,25-32.48,37.51-10.56,12.28-21,24.69-31.53,37-15.46,18-31,36-46.46,54-5.11,6-10.64,11.64-15,18.23"/><path class="cls-1" d="M49.5,76.56c-4.16,14.33-8.4,28.64-12.48,43-4.82,17-9.51,34-14.27,51-3.07,11-6,22-9.32,33-1.11,3.72-.83,8.19-6.31,9.91C5.36,214,4.94,219,4,222.06c-.55,1.8-.86,3.66-1.28,5.5"/><path class="cls-1" d="M37,71.56c-4.07,7.53-5.19,16-7.95,24C25.57,105.63,22.87,116,20,126.18c-3.11,10.88-6,21.92-9,32.87-2.93,10.69-6,21.33-9,32C-.2,199,1.17,206.19,6.5,212.56"/><path class="cls-1" d="M210.5,7.81a35.86,35.86,0,0,1,20.35,18.32c1.11,2.3-1,5.06-2.33,7.44-3.06,5.63-8.18,9.53-12.22,14.31-5.41,6.4-10.83,12.81-16.3,19.17-9.32,10.85-18.79,21.57-28,32.54-9.63,11.52-19.83,22.57-29.15,34.38-3.56,4.51-8.49,8.1-11.28,13.15-5.54,10-15.09,16.32-22.16,24.89-2.47,3-2.93,5.24-1.15,9.14,3.56,7.78,7,15.9,3.76,24.93-1,2.68-2.94,4.69-4.06,7.23"/><path class="cls-1" d="M210,6.06c-.2.57.51,1.65-.5,1.71-5.32.31-8,4.22-11,7.77-9.61,11.22-19.31,22.35-29,33.52C153.34,67.72,137.34,86.54,120.92,105c-6.34,7.13-11,15.9-19.42,21.08-1.84,7.37-8.55,11.26-12.85,16.72-7.35,9.32-14.76,18.8-23.22,27.2a66.23,66.23,0,0,0-18.26,33.61c-1.1,5-3.51,9.52-4.76,14.44a10.07,10.07,0,0,0,.09,6"/><path class="cls-1" d="M143,135.56l65.11,65.1c-9.53,8.31-16.4,18.25-25.52,25.92C160.14,206.1,140,184.36,118.5,164.06"/><path class="cls-1" d="M69,71.56c3.07,3.79,3.48,8.63,4.94,13,3.86,11.6,7,23.48,11.25,34.91,2.25,6,1.94,12.86,6.31,18.07"/><path class="cls-1" d="M57,76.56c3.67-2.79,8.61-3.34,12-6.54,7.22-6.85,8.17-20.42,2-28.45-5.52-7.2-13.33-10.88-21.92-9.21A21.48,21.48,0,0,0,32.5,47.05a23,23,0,0,0,4.84,23.21A17.22,17.22,0,0,0,51,75.51c4-.36,6.2.63,7.38,5,2.86,10.61,6.71,21,9.53,31.56,2.87,10.83,6.74,21.32,10,32,.69,2.21,1.29,4.37,3,6"/><path class="cls-1" d="M56,31.56c.85-2.81,0-6.25,3.44-8.12.62-.34.53-2.22.54-3.38.06-4.5-.11-9,.06-13.5.16-4-1.74-5.47-5.54-5.54-7.31-.14-7.86.2-9,7"/><path class="cls-1" d="M73.5,66.06c12.73,11.27,23.61,24.4,36,36,2.24,2.09,3.92,4.87,7,6"/><path class="cls-1" d="M59.5,125.06c-2-2.24-.75-5-1.14-7.52-.47-3.08-1.74-4.77-4.86-5-3.56-.25-5.19,2.17-5.39,5-.38,5.31-.15,10.66-.09,16,0,3.26,2.72,3.79,5,3.89s4.84-.54,5-3.89c.15-2.68.63-5.34,1-8"/><path class="cls-1" d="M96,191.06c3.77,4.1,3.7,9.78,5.87,14.56,1.38,3,.51,7.28,5.63,7.55.54,0,1.25,1.5,1.46,2.4,1,4.17,2.83,8.13,3,12.49"/><path class="cls-1" d="M189.5,28.56l23.75,21.5"/><path class="cls-1" d="M196.5,20.56l23,21"/><path class="cls-1" d="M44,8.06c1.48-.15,2.08.48,2,2-.09,2.49,0,5,0,7.5,0,2.92-.31,5.74,2.4,8.11,1.45,1.27,1.26,3.8,1.1,5.89"/><path class="cls-1" d="M106,178.06c-3.9.54-5.83,4-7.31,6.6-4.17,7.46-10.88,12.58-16.37,18.73-6.25,7-15.17,10.64-23.86,14.05a18.48,18.48,0,0,0-3,1.55c-3.57,2.2-7.12,4.63-11.46,5a4.2,4.2,0,0,0-3.5,2.55"/><path class="cls-1" d="M19,126.06c-5.22-2.17-10.68-.47-16-1"/><path class="cls-1" d="M100.5,126.06c-3.94-1.59-8-1.23-12-.5"/><path class="cls-1" d="M184,205.06c-.07,3.39-3.43,4.25-5,6.48-1.47,2.07-4,3.22-5,5.77"/><path class="cls-1" d="M54.5,186.06a125,125,0,0,1,23.25,20.5"/><path class="cls-1" d="M182,36.56q11.76,10.74,23.5,21.5"/><path class="cls-1" d="M52,45.56c-7.36,2.63-8.49,7.42-6.94,12,1,3,5.79,5.48,8.94,5a9,9,0,0,0,7.5-7.5,8.69,8.69,0,0,0-5-9,16.07,16.07,0,0,0-4-.55"/></svg>