<svg id="Capa_1" data-name="Capa 1" xmlns="http://www.w3.org/2000/svg" viewBox="0 0 250.51 217.04"><defs><style>.cls-1{fill:none;stroke:#356341;stroke-linecap:round;stroke-linejoin:round;stroke-width:2px;}</style></defs><path class="cls-1" d="M124.16,1c-7.58,5.4-15,10.91-23.46,15.09A117.49,117.49,0,0,1,55.16,28c-4.67.29-5.5,1.07-5.5,6,0,19.17-.2,38.33,0,57.5.37,28.08,9.79,52.54,30.51,71.94,12.46,11.66,27.34,19.85,42.44,27.58,2,1,3.87.28,5.48-.57,16.88-8.84,33.46-18.15,46.52-32.46a92.87,92.87,0,0,0,23.54-49c2.48-15.45,1.13-31,1.43-46.5.19-9.83,0-19.67.08-29.5,0-2.94-.66-4.29-4-4.61-11.56-1.1-23-2.74-34-6.88-11.72-4.42-22.71-10.11-32.52-18C127.81,2.53,126.8.71,124.66,1"/><path class="cls-1" d="M125.16,17.54c-4.9.77-8.41,4.34-12.39,6.69A114.35,114.35,0,0,1,66.15,40c-2.72.29-3.57,1.29-3.55,4,.11,18-.64,36,.24,54,1.06,21.75,9.74,40.48,25.82,55.5,9.4,8.78,20.54,15,31.48,21.54,5,3,9.06.23,13-2.09,8.88-5.26,17.78-10.52,25.54-17.44,18.06-16.13,27.68-36.21,28-60.5.19-16.83,0-33.67.1-50.5,0-3.08-1-4.19-4.06-4.57a119.33,119.33,0,0,1-49-17.43q-4-2.49-8-5"/><path class="cls-1" d="M52.16,183l8,6.49c6.58-8.31,5.69-17.07-2.66-24.64-4.81,2.16-3.86,7-4.16,10.66-.72,8.75-3.75,9.79-10.68,9.49a6.68,6.68,0,0,0-1,0c-2.88.36-6.48.77-7.26,3.57s2.78,4.23,4.82,5.31c7.07,3.72,17,3.08,20.44-3.38"/><path class="cls-1" d="M23.16,140c-4.62.63-8-3.27-12.5-3.33-1.64,0-3.51-.57-4.39.89-.74,1.23-.34,3,.39,4.44,4.39,8.6,14.22,13,21.5,8"/><path class="cls-1" d="M21.16,126.54c10.27-1.34,17.4-11.91,13.5-20-4-.12-6.47,2.35-9.07,4.93-1.88,1.88-3.2,5.18-6.93,4.07"/><path class="cls-1" d="M72.16,198.54a8.23,8.23,0,0,1-5.5,2.56c-4.28.55-6.56,2.28-9.5,6.44,8.83,8,20.56,5.64,25.17-5.42a96.73,96.73,0,0,0,22.32,8.18c2.86.66,5.67,1.49,8.51,2.24,2.33.61,4.84.89,6,3.5"/><path class="cls-1" d="M5.16,80c-4.52,8.93,2.25,20.68,12,21,3.92.15,7.53,1.4,11.6-.88,5.66-3.16,9.27-6.8,8.48-13.68-.11-.94.76-2,1.18-3"/><path class="cls-1" d="M45.16,145c-.2,1.59.64,2.71,1.43,4,4.83,8.12,2.82,16.91-4.93,22.46"/><path class="cls-1" d="M14.16,164c1.45-.12,1.87.52,2.63,1.93,3.34,6.16,8.53,9.6,15.87,9.65a8.26,8.26,0,0,0,7-3.08"/><path class="cls-1" d="M38.16,128c3.61,10.1-.33,19.22-9.5,22"/><path class="cls-1" d="M72.66,197c1.6-4.08-1.08-8-.54-12,.26-1.93-.5-4.08,2.07-5.28C82.66,183.06,87,192.89,83.66,202"/><path class="cls-1" d="M22.16,81c9-3.86,11.73-13.82,6-22-6.26,3.27-10.39,8.61-8.7,15.42a35.16,35.16,0,0,1-.25,17.84c3.41-.64,5.1-2.25,7-3.7,3-2.3,6.41-4,10.45-2.56"/><path class="cls-1" d="M45.16,147.54c-3.7.3-5.35,3.62-5.74,6-.59,3.73-2.85,6.54-4,10.93-6.53-13-13-25.09-14.7-39.28-7.8,4.35-15-1.59-18.52-9.7-.18-.42.19-1.22-.06-1.45-1.87-1.74-1.09-3.59.1-5,1.38-1.62,3.61-.63,4.87.06,3.86,2.1,7.32,4.94,11.57,6.38"/><path class="cls-1" d="M4.16,77c.08.5,0,1.38.26,1.44,6.39,2,9.43,8.23,14.74,11.56"/><path class="cls-1" d="M38.16,125c-.1.68.37,1.64-.51,2-5.33,2-7.6,7.08-11,11"/><path class="cls-1" d="M16.66,164.54c3.52-2.84,7.68-1.39,11.49-1.32a28.74,28.74,0,0,0,6-.18"/><path class="cls-1" d="M35.66,164c4.91,6.21,9,13.17,16,17.5"/><path class="cls-1" d="M62.16,190.54c5.77,5.3,13.18,8.05,19.5,12.5"/><path class="cls-1" d="M198.36,182.09l-8,6.49c-6.58-8.31-5.69-17.07,2.67-24.64,4.8,2.16,3.85,7,4.15,10.66.72,8.74,3.76,9.79,10.69,9.49a5.46,5.46,0,0,1,1,0c2.88.36,6.48.77,7.26,3.57s-2.78,4.23-4.82,5.3c-7.07,3.72-17,3.09-20.43-3.37"/><path class="cls-1" d="M227.36,139.09c4.61.63,8-3.27,12.49-3.34,1.64,0,3.51-.56,4.4.9.73,1.22.33,3-.4,4.44-4.39,8.6-14.22,13-21.49,8"/><path class="cls-1" d="M229.36,125.59c-10.28-1.34-17.41-11.91-13.51-20,4-.12,6.47,2.35,9.07,4.93,1.88,1.87,3.21,5.18,6.94,4.07"/><path class="cls-1" d="M178.36,197.59a8.18,8.18,0,0,0,5.49,2.56c4.28.55,6.56,2.28,9.51,6.44-8.84,8-20.57,5.64-25.18-5.42a96.56,96.56,0,0,1-22.32,8.18c-2.86.66-5.67,1.49-8.51,2.24-2.32.6-4.84.88-6,3.5"/><path class="cls-1" d="M245.36,79.09c4.51,8.93-2.26,20.68-12,21-3.92.15-7.53,1.39-11.6-.88-5.65-3.16-9.26-6.8-8.48-13.68.11-.94-.76-2-1.17-3"/><path class="cls-1" d="M205.36,144.09c.19,1.59-.65,2.71-1.44,4-4.83,8.12-2.82,16.9,4.94,22.46"/><path class="cls-1" d="M236.36,163.09c-1.46-.12-1.88.52-2.64,1.92-3.34,6.17-8.53,9.61-15.86,9.66a8.23,8.23,0,0,1-7-3.08"/><path class="cls-1" d="M212.36,127.09c-3.62,10.1.32,19.21,9.5,22"/><path class="cls-1" d="M177.86,196.09c-1.61-4.08,1.07-8,.53-12-.26-1.93.5-4.08-2.07-5.28-8.47,3.31-12.84,13.14-9.46,22.29"/><path class="cls-1" d="M228.36,80.09c-9-3.86-11.74-13.83-6-22,6.26,3.27,10.39,8.61,8.7,15.42a35,35,0,0,0,.24,17.84c-3.41-.64-5.1-2.25-7-3.7-3-2.3-6.41-4-10.45-2.56"/><path class="cls-1" d="M205.36,146.59c3.69.3,5.34,3.62,5.73,6,.59,3.73,2.85,6.54,4,10.93,6.53-13,13-25.1,14.7-39.28,7.8,4.35,15-1.59,18.52-9.7.18-.42-.19-1.22.06-1.46,1.87-1.73,1.09-3.58-.1-5-1.38-1.61-3.61-.62-4.87.07-3.86,2.1-7.32,4.94-11.56,6.38"/><path class="cls-1" d="M246.36,76.09c-.09.5-.05,1.37-.27,1.44-6.39,2-9.43,8.23-14.73,11.56"/><path class="cls-1" d="M212.36,124.09c.1.68-.38,1.64.5,2,5.34,2,7.6,7.09,11,11"/><path class="cls-1" d="M233.86,163.59c-3.53-2.84-7.69-1.39-11.5-1.32a29.34,29.34,0,0,1-6-.18"/><path class="cls-1" d="M214.86,163.09c-4.92,6.21-9,13.17-16,17.5"/><path class="cls-1" d="M188.36,189.59c-5.78,5.3-13.19,8-19.5,12.5"/></svg>