<svg id="Capa_1" data-name="Capa 1" xmlns="http://www.w3.org/2000/svg" viewBox="0 0 251.69 239.5"><defs><style>.cls-1{fill:none;stroke:#356341;stroke-linecap:round;stroke-linejoin:round;stroke-width:2px;}</style></defs><path class="cls-1" d="M72.57,127.49c5.6,1.15,10.09,4.89,15.5,6.52,26.46,8,55.52,1.08,74.1-21.94C173.63,97.86,178.84,81.91,177.46,64A66.1,66.1,0,0,0,156,19.52C142.43,6.85,126.25.34,107.57,1.05c-20.32.78-36.91,9.46-50,25A64.1,64.1,0,0,0,43.17,55.51C39,77.18,44.32,96.45,58.41,113.62c4.14,5,9.73,8.31,13.66,13.37"/><path class="cls-1" d="M210.07,183c.8,5.54,4,8.14,9.45,9.68,6.72,1.92,13.1,5,19.54,7.85,6.24,2.73,9.52,7.65,10,14.47.43,5.84,1,11.67,1.48,17.5.44,5.46,0,6-5.5,6h-52.5q-21.24,0-42.5,0c-5.47,0-6-.54-5.48-6,.59-6.34,1.41-12.66,2-19,.64-7.37,5.36-11.38,11.55-13.94,5.54-2.29,11.31-4,17-6.06,5-1.78,9.47-4.08,10.5-10"/><path class="cls-1" d="M101.07,80c-2.84,5.08-8.35,5.73-13,7.39-7.62,2.7-13,6.72-13,15.61,0,2.05-1.83,3.25-2.71,5.59,7.77,9,18.14,13.43,29.73,15.37a50.19,50.19,0,0,0,39.34-9.65c27.76-21,32.13-59.72,6.15-84.8S80.45,10,61.76,42.6a53,53,0,0,0,4.81,59.89c1.62,2,2.84,4.55,6,4.5"/><path class="cls-1" d="M45.57,130.49C38.81,134.4,35,141.26,29.7,146.62c-8.63,8.7-16.51,18.16-24.61,27.39-5.31,6-5.42,12.66-.52,17.48S17.47,196.31,23,191c3.9-3.76,7.4-7.93,11-12q13.27-14.73,26.49-29.51c3.29-3.7,2.7-6.39-1.46-9.52-2.64-2-5.62-3.92-7.34-6.59-1.44-2.23-3.24-2.47-5.19-3.13"/><path class="cls-1" d="M230.07,149.49c-9.49.86-19,.21-28.5.55-9.33.33-18.65-.59-28,.55-2.64.33-6.29-.22-9.45-.6"/><path class="cls-1" d="M118.07,79.49c1.84,3.41,5.16,4.7,8.5,6s6.34,2.64,9.5,4c5.09,2.16,8.08,5.91,8.2,11.5.06,2.73,1.4,4.88,2.3,7.25"/><path class="cls-1" d="M126.07,56.49a215,215,0,0,0-32.5,0"/><path class="cls-1" d="M203.82,134c.74-4.58.19-9.37,3.15-13.57,1.22-1.75-1.79-4.89-4.9-4.86-5,0-9.83-.74-14.2,3.74-3.56,3.64-8.71,5.72-11.82,10.18-4.12,5.88-5.62,12.51-6,19.51"/><path class="cls-1" d="M207.57,120.49c10.32,3.14,17.64,15.65,17.5,28.5"/><path class="cls-1" d="M173.57,151.49c-.64,11.86,2.84,22.47,11.69,30.29,4,3.52,9.83,4.79,15.83,3.8,12.39-2,17.88-13.32,19.93-23.6a104.36,104.36,0,0,0,1-10.49"/><path class="cls-1" d="M93.07,57a28.33,28.33,0,0,0,8.69,21.81c2.27,2.21,6.59,2.47,10.32,1.72,5.8-1.15,9.37-4.62,11.55-10a27.88,27.88,0,0,0,2.46-9c.07-1.33-.15-3.05.57-3.92,2-2.38,2.17-4.71,1.47-7.59-1.09-4.51-3.15-9.06-6.73-11.2-3.9-2.34-7.06-6.37-12.84-6.09-4,.18-5.3,3.1-7.88,4.5-6.13,3.36-9.32,9-9.17,16.3a3.9,3.9,0,0,0,1.56,3"/><path class="cls-1" d="M189.07,120c2.1,4.44,2.08,9.29,2.75,14"/><path class="cls-1" d="M62.32,119.49c-4.89,3-7.59,8.09-11.25,12.25"/><path class="cls-1" d="M72.07,128l-11,12.75"/></svg>