<svg id="Capa_1" data-name="Capa 1" xmlns="http://www.w3.org/2000/svg" viewBox="0 0 203.6 245.99"><defs><style>.cls-1{fill:none;stroke:#356341;stroke-linecap:round;stroke-linejoin:round;stroke-width:2px;}</style></defs><path class="cls-1" d="M101.06,1.08C88.92,12.13,75.83,22,61,29c-16.68,7.86-34.3,13-52.94,13-4.53,0-6.24,2.08-6.41,5.65-.44,9-.95,18-.43,27,.43,7.49.32,15,1.15,22.53a224,224,0,0,0,6.82,36.94c6.14,21.56,15.43,41.66,29.29,59.59a177.92,177.92,0,0,0,43.58,39.94c5.14,3.38,10.22,6.86,15.55,9.9,2,1.12,4.12,2.37,7,.69,24.14-14.17,46.15-30.73,63-53.54,15.65-21.18,24.59-45,30.09-70.51,4.75-22,5-44.23,4.86-66.54,0-.5,0-1,0-1.49-1-9.81-1-9.3-11-10.12a137.23,137.23,0,0,1-47-12.35c-14.78-6.9-27.77-16.38-40-27-.89-.77-1.56-1.89-3-1.49"/><path class="cls-1" d="M101.56,21.58c-8.18,4.65-15.17,11.05-23.47,15.57C60.63,46.65,42.52,53.9,22.57,56.22c-5.29.61-6,.57-6.09,6.86-.52,25.17,2.08,49.94,9.64,74,10.81,34.37,31.9,61.17,61.45,81.49,3.89,2.67,8,5,12,7.55A4.87,4.87,0,0,0,105,226c27-17.27,50.22-38.2,64-67.95a195.33,195.33,0,0,0,14.41-45c3.16-16.15,4-32.55,4.06-49,0-5.87-1.1-7.3-6.49-8-21.73-2.67-41.43-10.56-60.11-21.85-6.53-4-11.9-9.5-18.88-12.69"/><path class="cls-1" d="M142.06,130.58c-.78,10.52-3.37,20.4-8.94,29.55a45.76,45.76,0,0,1-22.56,19.2c-8.17,3.31-15.77,1.21-23-2.78-13.25-7.33-20.45-19.16-24-33.48-1-3.92-1.38-8-2-12"/><path class="cls-1" d="M136.56,118.33c4.33-.25,8.67-.71,13-.68,3.49,0,5.69,2.93,5.51,6.44-.2,3.89-2.42,5-6,5q-33.25-.1-66.5,0A150.46,150.46,0,0,0,62,130.29a25,25,0,0,1-9.44-1c-2.89-.81-5.09-2.76-4.47-6.17.59-3.19,5.15-6.36,7.91-5.4a13.13,13.13,0,0,0,4.54.36c18.83,0,37.66,0,56.5.06,3.33,0,6.66.31,10,.47"/><path class="cls-1" d="M116.06,71.58c14.46,3.94,27.35,15.91,31.44,33.52a46,46,0,0,1,1.56,12"/><path class="cls-1" d="M88.06,71.58c-19,5.13-31,21.19-33,40.5-.16,1.51-.34,3-.5,4.5"/><path class="cls-1" d="M111.06,99.58c1.31-9.16,1.29-18.51,3.94-27.51.91-3.11-1.62-6.41-5-7a44.46,44.46,0,0,0-16,0c-4.58.91-5.34,3.43-4.63,8,1.33,8.6,2,17.32,2.87,26"/><path class="cls-1" d="M127.06,78.08c-2.51,4.34-2.89,9.23-3.75,14"/><path class="cls-1" d="M77.06,78.08c1.92,4.48,2.24,9.36,3.5,14"/></svg>