<?xml version="1.0" encoding="UTF-8"?><svg id="Capa_1" xmlns="http://www.w3.org/2000/svg" width="1261.93" height="842.67" viewBox="0 0 1261.93 842.67"><defs><style>.cls-1{fill:#fff;}</style></defs><path class="cls-1" d="M25.1,145.33h47.75v6.73c0,5.55,4.2,9.74,12.61,12.6,7.34,2.51,15.57,3.76,24.68,3.76,10.56,0,19.05-1.16,25.49-3.49,7.87-3.04,11.8-7.69,11.8-13.95,0-3.93-2.67-6.88-8.05-8.84-4.65-1.62-10.56-2.6-17.71-2.95-2.86-.17-7.15-.28-12.88-.28-25.22,0-44.94-3.93-59.16-11.79-14.21-7.88-21.32-21.92-21.32-42.12s7.47-34.52,22.4-44.02c14.94-9.48,34.74-14.21,59.43-14.21,15.03,0,28.76,2.34,41.19,6.99,12.42,4.65,22.36,11.4,29.78,20.24,7.41,8.87,11.14,19.54,11.14,32.08v6.7h-48.04v-6.7c0-5.37-3.44-9.43-10.33-12.21-6.89-2.77-14.8-4.17-23.75-4.17s-16.99.98-23.07,2.95c-7.16,2.69-10.73,6.81-10.73,12.36,0,2.49.98,4.45,2.95,5.9s5.01,2.6,9.13,3.49c2.67.52,6.79.98,12.34,1.33,2.86.17,6.62.26,11.27.26,25.94,0,46.33,4.04,61.18,12.08,14.84,8.06,22.26,22.36,22.26,42.93s-7.77,35.79-23.34,45.61c-15.56,9.85-36.21,14.76-61.98,14.76-15.2,0-29.24-2.23-42.12-6.7s-23.25-11.18-31.13-20.13c-7.87-8.93-11.8-19.76-11.8-32.45v-6.73Z"/><path class="cls-1" d="M300.12,73.16h-64.39V29.97h177.09v43.19h-64.65v134.96h-48.04V73.16Z"/><path class="cls-1" d="M467.02,29.97h48.03v92.3c0,7.14,1.34,14.13,4.02,20.92,2.69,6.79,6.85,12.38,12.48,16.77,5.63,4.39,12.57,6.57,20.8,6.57s14.89-2.18,20.53-6.57,9.79-9.98,12.48-16.77c2.67-6.79,4.02-13.78,4.02-20.92V29.97h48.03v92.3c0,13.95-3.13,27.75-9.39,41.44-6.27,13.69-15.79,25.05-28.57,34.09-12.8,9.02-28.48,13.54-47.09,13.54s-34.35-4.52-47.23-13.54c-12.87-9.04-22.45-20.39-28.7-34.09-6.27-13.69-9.39-27.49-9.39-41.44V29.97Z"/><path class="cls-1" d="M703.14,29.97h88.54c19.49,0,36.13,4.32,49.9,12.99,13.77,8.69,24.15,19.83,31.13,33.41,6.98,13.6,10.46,27.82,10.46,42.67s-3.54,28.84-10.6,42.54c-7.06,13.67-17.48,24.87-31.26,33.54-13.78,8.67-30.32,13.01-49.63,13.01h-88.54V29.97ZM791.68,165.2c8.94,0,16.58-2.25,22.94-6.73,6.34-4.45,11.09-10.22,14.21-17.29,3.13-7.07,4.71-14.46,4.71-22.14s-1.57-15.02-4.71-21.99c-3.12-6.99-7.87-12.71-14.21-17.18-6.35-4.48-14-6.7-22.94-6.7h-40.52v92.04h40.52Z"/><path class="cls-1" d="M940.86,29.97h48.03v178.16h-48.03V29.97Z"/><path class="cls-1" d="M1137.79,26.74c19.86,0,36.67,4.56,50.44,13.69,13.78,9.13,24.11,20.79,31,35,6.88,14.24,10.33,28.76,10.33,43.61s-3.45,29.61-10.33,43.74c-6.89,14.13-17.22,25.77-31,34.89-13.77,9.11-30.58,13.67-50.44,13.67s-36.4-4.56-50.18-13.67c-13.77-9.13-24.11-20.77-30.98-34.89-6.89-14.13-10.33-28.71-10.33-43.74s3.44-29.37,10.33-43.61c6.88-14.21,17.22-25.88,30.98-35,13.78-9.13,30.5-13.69,50.18-13.69ZM1137.79,71.28c-9.12,0-16.81,2.38-23.07,7.12-6.27,4.74-10.96,10.76-14.09,18.1-3.12,7.34-4.69,14.85-4.69,22.53s1.57,15.22,4.69,22.53c3.13,7.34,7.83,13.34,14.09,17.99,6.26,4.65,13.95,6.97,23.07,6.97s16.9-2.31,23.34-6.97,11.22-10.66,14.36-17.99c3.13-7.31,4.69-14.85,4.69-22.53s-1.56-15.2-4.69-22.53c-3.13-7.34-7.92-13.36-14.36-18.1-6.44-4.74-14.21-7.12-23.34-7.12Z"/><path class="cls-1" d="M86,395.13H21.61v-43.19h177.09v43.19h-64.65v134.96h-48.04v-134.96Z"/><path class="cls-1" d="M236.81,530.09v-178.16h123.96c12.51,0,23.03,2.73,31.52,8.19s14.72,12.47,18.65,21.05c3.94,8.6,5.91,17.53,5.91,26.84,0,11.46-3.13,22.05-9.39,31.79-6.27,9.76-15.66,16.42-28.18,20l.27.52,42.39,69.76h-54.2l-40.79-67.6h-42.12v67.6h-48.03ZM284.83,419.28h75.93c2.5,0,4.47-.83,5.9-2.53s2.15-4.08,2.15-7.12v-4.83c0-3.04-.72-5.42-2.15-7.12s-3.4-2.55-5.9-2.55h-75.93v24.15Z"/><path class="cls-1" d="M449.83,530.09l71.64-178.16h59.57l71.37,178.16h-51.51l-16.64-42.12h-67.08l-16.37,42.12h-50.99ZM533.82,445.04h34.07l-17.45-41.31-16.63,41.31Z"/><path class="cls-1" d="M718.41,395.13h-64.39v-43.19h177.09v43.19h-64.65v134.96h-48.04v-134.96Z"/><path class="cls-1" d="M921.8,395.13h-64.39v-43.19h177.09v43.19h-64.65v134.96h-48.04v-134.96Z"/><path class="cls-1" d="M1145.04,348.73c19.86,0,36.67,4.54,50.44,13.67,13.78,9.13,24.11,20.81,31,35.02,6.88,14.21,10.33,28.76,10.33,43.61s-3.45,29.61-10.33,43.74c-6.89,14.13-17.22,25.74-31,34.87-13.77,9.13-30.58,13.69-50.44,13.69s-36.4-4.56-50.18-13.69c-13.77-9.13-24.11-20.74-30.98-34.87-6.89-14.13-10.33-28.71-10.33-43.74s3.44-29.39,10.33-43.61c6.88-14.21,17.22-25.9,30.98-35.02,13.78-9.13,30.5-13.67,50.18-13.67ZM1145.04,393.25c-9.12,0-16.81,2.38-23.07,7.12-6.27,4.74-10.96,10.79-14.09,18.1-3.12,7.34-4.69,14.87-4.69,22.56s1.57,15.2,4.69,22.53c3.13,7.34,7.83,13.32,14.09,17.97,6.26,4.65,13.95,6.99,23.07,6.99s16.9-2.34,23.34-6.99,11.22-10.63,14.36-17.97,4.69-14.85,4.69-22.53-1.56-15.22-4.69-22.56c-3.13-7.31-7.92-13.36-14.36-18.1s-14.21-7.12-23.34-7.12Z"/><path class="cls-1" d="M23.35,808.1l45.69-115.29h9.73l45.1,115.29h-8.94l-14.77-36.95h-53.28l-14.77,36.95h-8.76ZM97.25,763.77l-23.72-62.01-24.3,62.01h48.03Z"/><path class="cls-1" d="M144.14,808.1v-115.29h55.03c7.9,0,14.64,2.99,20.22,8.95,5.57,5.83,8.35,12.95,8.35,21.38,0,7.38-1.68,13.8-5.05,19.26-3.49,5.44-7.84,8.6-13.02,9.52,4.79,1.29,8.69,5.37,11.67,12.25,2.98,6.88,4.47,15.15,4.47,24.89,0,5.44.13,9.52.39,12.25.26,3.23.78,5.5,1.55,6.79h-7.77c-1.3-1.55-2.14-4.39-2.52-8.56l-.59-16.51c0-7.8-1.88-14.46-5.63-20.04-3.64-5.44-8.1-8.17-13.42-8.17h-45.89v53.28h-7.77ZM197.8,747.64c6.09,0,11.34-2.34,15.74-7.01,4.28-4.52,6.42-10.11,6.42-16.7s-2.14-12.05-6.42-16.73c-4.4-4.54-9.65-6.81-15.74-6.81h-45.89v47.25h45.89Z"/><path class="cls-1" d="M262.78,793.34c-9.99-11.81-14.98-26.07-14.98-42.78s4.99-31.05,14.98-42.97c10.11-11.79,22.23-17.71,36.36-17.71s26.25,5.92,36.36,17.71c9.98,11.92,14.97,26.25,14.97,42.97,0,10.11-1.35,19.24-4.08,27.4-2.72,8.3-6.54,14.91-11.46,19.83l15.55,11.68-5.44,6.79-16.33-13.21c-2.6,2.6-6.42,4.54-11.47,5.83-5.19,1.42-11.21,2.14-18.08,2.14-14.13,0-26.25-5.9-36.36-17.69ZM312.36,802.47c3.89-.9,7.13-2.27,9.72-4.08l-11.08-8.56,6.03-6.79,11.67,9.52c4.53-5.44,7.97-11.73,10.31-18.87,2.46-7.25,3.69-14.96,3.69-23.12,0-14.65-4.28-27.23-12.83-37.73-8.43-10.37-18.67-15.55-30.72-15.55s-22.29,5.18-30.72,15.55c-8.56,10.5-12.83,23.08-12.83,37.73s4.27,27.21,12.83,37.71c8.43,10.37,18.67,15.55,30.72,15.55,4.92,0,9.33-.44,13.22-1.35Z"/><path class="cls-1" d="M386.66,799.37c-8.43-7.8-12.63-17.18-12.63-28.21v-78.35h7.77v78.35c0,9.08,3.5,16.79,10.5,23.15,6.87,6.35,15.23,9.52,25.08,9.52,9.33,0,17.37-3.17,24.11-9.52,6.62-6.35,9.92-14.06,9.92-23.15v-78.35h7.77v78.35c0,11.03-4.08,20.42-12.25,28.21-8.17,7.77-18.01,11.66-29.55,11.66s-22.16-3.89-30.72-11.66Z"/><path class="cls-1" d="M488.4,808.1v-115.29h7.77v115.29h-7.77Z"/><path class="cls-1" d="M555.11,808.1v-107.71h-39.47v-7.58h87.11v7.58h-39.86v107.71h-7.78Z"/><path class="cls-1" d="M622.24,808.1v-115.29h75.24v7.58h-67.47v44.33h61.63v7.21h-61.63v48.8h67.47v7.38h-75.24Z"/><path class="cls-1" d="M727.26,793.34c-10.37-11.81-15.56-26.07-15.56-42.78s5.19-31.05,15.56-42.97c10.24-11.79,22.68-17.71,37.33-17.71,12.05,0,22.23,3.25,30.53,9.74,8.3,6.35,13.42,14.89,15.36,25.66h-7.77c-1.43-8.04-5.78-14.72-13.02-20.02-7.14-5.31-15.49-7.97-25.09-7.97-12.45,0-23.07,5.18-31.88,15.55-8.82,10.5-13.22,23.08-13.22,37.73s4.4,27.21,13.22,37.71c8.81,10.37,19.43,15.55,31.88,15.55,10.63,0,19.38-3.1,26.25-9.32,7.01-6.22,10.96-14.52,11.87-24.89h7.77c-1.04,12.58-5.76,22.62-14.19,30.13-8.3,7.53-18.85,11.29-31.69,11.29-14.65,0-27.09-5.9-37.33-17.69Z"/><path class="cls-1" d="M860.68,808.1v-107.71h-39.47v-7.58h87.11v7.58h-39.86v107.71h-7.78Z"/><path class="cls-1" d="M938.49,799.37c-8.43-7.8-12.63-17.18-12.63-28.21v-78.35h7.77v78.35c0,9.08,3.5,16.79,10.5,23.15,6.87,6.35,15.23,9.52,25.08,9.52,9.33,0,17.37-3.17,24.11-9.52,6.62-6.35,9.92-14.06,9.92-23.15v-78.35h7.77v78.35c0,11.03-4.08,20.42-12.25,28.21-8.17,7.77-18.01,11.66-29.55,11.66s-22.16-3.89-30.72-11.66Z"/><path class="cls-1" d="M1040.22,808.1v-115.29h55.03c7.9,0,14.64,2.99,20.22,8.95,5.57,5.83,8.35,12.95,8.35,21.38,0,7.38-1.68,13.8-5.05,19.26-3.49,5.44-7.84,8.6-13.02,9.52,4.79,1.29,8.69,5.37,11.67,12.25,2.98,6.88,4.47,15.15,4.47,24.89,0,5.44.13,9.52.39,12.25.26,3.23.78,5.5,1.55,6.79h-7.77c-1.3-1.55-2.14-4.39-2.52-8.56l-.59-16.51c0-7.8-1.88-14.46-5.63-20.04-3.64-5.44-8.1-8.17-13.42-8.17h-45.89v53.28h-7.77ZM1093.88,747.64c6.09,0,11.34-2.34,15.74-7.01,4.28-4.52,6.42-10.11,6.42-16.7s-2.14-12.05-6.42-16.73c-4.4-4.54-9.65-6.81-15.74-6.81h-45.89v47.25h45.89Z"/><path class="cls-1" d="M1139.8,808.1l45.69-115.29h9.73l45.1,115.29h-8.94l-14.77-36.95h-53.28l-14.77,36.95h-8.76ZM1213.69,763.77l-23.72-62.01-24.3,62.01h48.03Z"/></svg>