<?xml version="1.0" encoding="UTF-8"?><svg id="Capa_1" xmlns="http://www.w3.org/2000/svg" width="1261.93" height="567.86" viewBox="0 0 1261.93 567.86"><defs><style>.cls-1{fill:#4c267e;}</style></defs><path class="cls-1" d="M23.83,141.2h47.75v6.7c0,5.55,4.2,9.76,12.61,12.62,7.34,2.49,15.57,3.76,24.68,3.76,10.56,0,19.05-1.18,25.49-3.49,7.87-3.04,11.8-7.69,11.8-13.95,0-3.93-2.67-6.88-8.05-8.87-4.65-1.59-10.56-2.58-17.71-2.95-2.86-.17-7.15-.26-12.88-.26-25.22,0-44.94-3.93-59.16-11.81-14.21-7.86-21.32-21.9-21.32-42.12s7.47-34.52,22.4-44,34.74-14.21,59.43-14.21c15.03,0,28.76,2.31,41.19,6.97,12.42,4.65,22.36,11.4,29.78,20.26,7.41,8.84,11.14,19.54,11.14,32.05v6.7h-48.04v-6.7c0-5.37-3.44-9.43-10.33-12.21s-14.8-4.15-23.75-4.15-16.99.98-23.07,2.95c-7.16,2.69-10.73,6.79-10.73,12.34,0,2.51.98,4.48,2.95,5.9,1.97,1.44,5.01,2.6,9.13,3.49,2.67.55,6.79.98,12.34,1.35,2.86.17,6.62.26,11.27.26,25.94,0,46.33,4.02,61.18,12.08,14.84,8.04,22.26,22.36,22.26,42.93s-7.77,35.77-23.34,45.61c-15.56,9.83-36.21,14.76-61.98,14.76-15.2,0-29.24-2.25-42.12-6.7-12.88-4.48-23.25-11.18-31.13-20.13s-11.8-19.76-11.8-32.47v-6.7Z"/><path class="cls-1" d="M298.84,69.01h-64.39V25.82h177.09v43.19h-64.65v134.96h-48.04V69.01Z"/><path class="cls-1" d="M465.74,25.82h48.03v92.3c0,7.16,1.34,14.13,4.02,20.94,2.69,6.79,6.85,12.38,12.48,16.77,5.63,4.37,12.57,6.57,20.8,6.57s14.89-2.21,20.53-6.57c5.63-4.39,9.79-9.98,12.48-16.77,2.67-6.81,4.02-13.78,4.02-20.94V25.82h48.03v92.3c0,13.95-3.13,27.77-9.39,41.47-6.27,13.67-15.79,25.05-28.57,34.06-12.8,9.04-28.48,13.56-47.09,13.56s-34.35-4.52-47.23-13.56c-12.87-9.02-22.45-20.39-28.7-34.06-6.27-13.69-9.39-27.51-9.39-41.47V25.82Z"/><path class="cls-1" d="M701.86,25.82h88.54c19.49,0,36.13,4.35,49.9,13.01,13.77,8.67,24.15,19.8,31.13,33.41,6.98,13.58,10.46,27.82,10.46,42.67s-3.54,28.84-10.6,42.51c-7.06,13.69-17.48,24.87-31.26,33.54-13.78,8.69-30.32,13.01-49.63,13.01h-88.54V25.82ZM790.4,161.05c8.94,0,16.58-2.23,22.94-6.7,6.34-4.48,11.09-10.24,14.21-17.32,3.13-7.05,4.71-14.43,4.71-22.12s-1.57-15.02-4.71-22.01c-3.12-6.97-7.87-12.71-14.21-17.16-6.35-4.48-14-6.73-22.94-6.73h-40.52v92.04h40.52Z"/><path class="cls-1" d="M939.58,25.82h48.03v178.16h-48.03V25.82Z"/><path class="cls-1" d="M1136.52,22.61c19.86,0,36.67,4.54,50.44,13.67,13.78,9.13,24.11,20.81,31,35.02,6.88,14.21,10.33,28.76,10.33,43.61s-3.45,29.61-10.33,43.74c-6.89,14.13-17.22,25.74-31,34.87-13.77,9.13-30.58,13.69-50.44,13.69s-36.4-4.56-50.18-13.69c-13.77-9.13-24.11-20.74-30.98-34.87-6.89-14.13-10.33-28.71-10.33-43.74s3.44-29.39,10.33-43.61c6.88-14.21,17.22-25.9,30.98-35.02,13.78-9.13,30.5-13.67,50.18-13.67ZM1136.52,67.13c-9.12,0-16.81,2.38-23.07,7.12-6.27,4.74-10.96,10.79-14.09,18.1-3.12,7.34-4.69,14.87-4.69,22.56s1.57,15.2,4.69,22.53c3.13,7.34,7.83,13.32,14.09,17.97,6.26,4.65,13.95,6.99,23.07,6.99s16.9-2.34,23.34-6.99c6.44-4.65,11.22-10.63,14.36-17.97,3.13-7.34,4.69-14.85,4.69-22.53s-1.56-15.22-4.69-22.56c-3.13-7.31-7.92-13.36-14.36-18.1s-14.21-7.12-23.34-7.12Z"/><path class="cls-1" d="M84.73,390.99H20.33v-43.19h177.09v43.19h-64.65v134.96h-48.04v-134.96Z"/><path class="cls-1" d="M235.53,525.96v-178.16h123.96c12.51,0,23.03,2.73,31.52,8.17,8.49,5.46,14.72,12.49,18.65,21.07,3.94,8.58,5.91,17.53,5.91,26.84,0,11.44-3.13,22.03-9.39,31.79-6.27,9.74-15.66,16.42-28.18,19.98l.27.55,42.39,69.76h-54.2l-40.79-67.62h-42.12v67.62h-48.03ZM283.56,415.14h75.93c2.5,0,4.47-.85,5.9-2.55s2.15-4.06,2.15-7.12v-4.83c0-3.04-.72-5.39-2.15-7.1s-3.4-2.55-5.9-2.55h-75.93v24.15Z"/><path class="cls-1" d="M448.56,525.96l71.64-178.16h59.57l71.37,178.16h-51.51l-16.64-42.12h-67.08l-16.37,42.12h-50.99ZM532.55,440.89h34.07l-17.45-41.31-16.63,41.31Z"/><path class="cls-1" d="M717.13,390.99h-64.39v-43.19h177.09v43.19h-64.65v134.96h-48.04v-134.96Z"/><path class="cls-1" d="M920.52,390.99h-64.39v-43.19h177.09v43.19h-64.65v134.96h-48.04v-134.96Z"/><path class="cls-1" d="M1143.77,344.57c19.86,0,36.67,4.56,50.44,13.69,13.78,9.13,24.11,20.79,31,35,6.88,14.24,10.33,28.76,10.33,43.61s-3.45,29.61-10.33,43.74c-6.89,14.13-17.22,25.77-31,34.89-13.77,9.11-30.58,13.67-50.44,13.67s-36.4-4.56-50.18-13.67c-13.77-9.13-24.11-20.77-30.98-34.89-6.89-14.13-10.33-28.71-10.33-43.74s3.44-29.37,10.33-43.61c6.88-14.21,17.22-25.88,30.98-35,13.78-9.13,30.5-13.69,50.18-13.69ZM1143.77,389.12c-9.12,0-16.81,2.38-23.07,7.12-6.27,4.74-10.96,10.76-14.09,18.1-3.12,7.34-4.69,14.85-4.69,22.53s1.57,15.22,4.69,22.53c3.13,7.34,7.83,13.34,14.09,17.99,6.26,4.65,13.95,6.97,23.07,6.97s16.9-2.31,23.34-6.97,11.22-10.66,14.36-17.99c3.13-7.31,4.69-14.85,4.69-22.53s-1.56-15.2-4.69-22.53-7.92-13.36-14.36-18.1-14.21-7.12-23.34-7.12Z"/></svg>